<svg width="1080" height="1080" viewBox="0 0 1080 1080" fill="none" xmlns="http://www.w3.org/2000/svg">
<path d="M795.03 549.17H551.49C543.49 549.17 536.98 542.66 536.98 534.66V274.34C536.98 264.91 529.1 257.3 519.53 257.86C467.67 260.89 417.45 280.65 374.31 315C332.94 347.94 300.83 391.78 281.43 441.79C262.81 489.81 257.38 540.69 265.73 588.94C274.99 642.45 300.24 690.67 340.79 732.28C391.71 784.53 455.45 812.14 525.11 812.14C558.76 812.14 592.52 805.73 625.48 793.09C657.5 780.81 687.17 763.28 713.67 740.99C768.99 694.45 803.7 632.89 811.41 567.65C811.96 562.96 810.48 558.24 807.35 554.72C804.22 551.2 799.73 549.18 795.02 549.18L795.03 549.17ZM551.49 607.78H741.22C728.14 640.67 705.6 671.2 675.96 696.14C632.6 732.61 577.63 753.53 525.13 753.53C499.52 753.53 474.84 748.67 451.77 739.08C426.69 728.66 403.48 712.61 382.78 691.37C350.65 658.4 330.7 620.57 323.49 578.94C316.95 541.18 321.31 501.08 336.09 462.98C351.51 423.21 378.05 386.94 410.83 360.85C431.67 344.26 454.39 332.05 478.38 324.56V534.67C478.38 574.99 511.18 607.79 551.5 607.79L551.49 607.78Z" fill="#F2B14F"/>
<path d="M584.11 228.53C574.58 227.96 566.58 235.58 566.58 245.01V505.34C566.58 514.44 573.99 521.85 583.09 521.85H828.61C837.62 521.85 844.96 514.55 844.96 505.59V505.43C844.96 358.76 730.38 237.13 584.11 228.54V228.53ZM782.27 463.24H625.19V294.3C704.9 315.98 766.37 382.09 782.27 463.24Z" fill="#F2B14F"/>
</svg>
