<svg width="1080" height="1080" viewBox="0 0 1080 1080" fill="none" xmlns="http://www.w3.org/2000/svg">
<path d="M656.39 481.93H428.2C397.32 481.93 372.2 456.81 372.2 425.93V250.47C372.2 219.59 397.32 194.47 428.2 194.47H656.39C687.27 194.47 712.39 219.59 712.39 250.47V425.93C712.39 456.81 687.27 481.93 656.39 481.93ZM428.2 245.6C425.51 245.6 423.33 247.78 423.33 250.47V425.93C423.33 428.62 425.51 430.8 428.2 430.8H656.39C659.08 430.8 661.26 428.62 661.26 425.93V250.47C661.26 247.78 659.08 245.6 656.39 245.6H428.2Z" fill="#1ECAA5"/>
<path d="M845.1 805.78H616.91C586.03 805.78 560.91 780.66 560.91 749.78V574.32C560.91 543.44 586.03 518.32 616.91 518.32H845.1C875.98 518.32 901.1 543.44 901.1 574.32V749.78C901.1 780.66 875.98 805.78 845.1 805.78ZM616.91 569.45C614.22 569.45 612.04 571.63 612.04 574.32V749.78C612.04 752.47 614.22 754.65 616.91 754.65H845.1C847.79 754.65 849.97 752.47 849.97 749.78V574.32C849.97 571.63 847.79 569.45 845.1 569.45H616.91Z" fill="#1ECAA5"/>
<path d="M467.68 805.78H239.48C208.6 805.78 183.48 780.66 183.48 749.78V574.32C183.48 543.44 208.6 518.32 239.48 518.32H467.67C498.55 518.32 523.67 543.44 523.67 574.32V749.78C523.67 780.66 498.55 805.78 467.67 805.78H467.68ZM239.49 569.45C236.8 569.45 234.62 571.63 234.62 574.32V749.78C234.62 752.47 236.8 754.65 239.49 754.65H467.68C470.37 754.65 472.55 752.47 472.55 749.78V574.32C472.55 571.63 470.37 569.45 467.68 569.45H239.48H239.49Z" fill="#1ECAA5"/>
</svg>
