<svg width="512" height="512" viewBox="0 0 512 512" fill="none" xmlns="http://www.w3.org/2000/svg">
<g clip-path="url(#clip0_26_20)">
<path d="M0 257.286C0 384.643 92.34 490.131 214.178 512L214.458 511.77V331.336H150.333V259.296H214.458V202.693C214.458 138.372 255.498 102.352 314.493 102.352C332.448 102.352 352.968 104.924 370.923 107.497V173.105H337.578C306.798 173.105 299.103 188.543 299.103 209.125V259.296H367.076L355.533 331.336H299.103V511.949C420.802 489.969 513 384.545 513 257.286C513 115.779 397.575 0 256.5 0C115.425 0 0 115.779 0 257.286Z" fill="white"/>
</g>
<defs>
<clipPath id="clip0_26_20">
<rect width="512" height="512" fill="white"/>
</clipPath>
</defs>
</svg>
