<svg width="512" height="512" viewBox="0 0 512 512" fill="none" xmlns="http://www.w3.org/2000/svg">
<path fill-rule="evenodd" clip-rule="evenodd" d="M256.212 0C114.533 0 0 117.333 0 262.49C0 378.521 73.3854 476.739 175.19 511.502C187.919 514.115 192.581 505.854 192.581 498.905C192.581 492.819 192.161 471.961 192.161 450.227C120.89 465.875 106.048 418.937 106.048 418.937C94.5939 388.516 77.6229 380.697 77.6229 380.697C54.2957 364.617 79.3221 364.617 79.3221 364.617C105.198 366.356 118.776 391.561 118.776 391.561C141.679 431.54 178.584 420.244 193.431 413.289C195.549 396.34 202.341 384.606 209.552 378.089C152.708 372.004 92.9 349.407 92.9 248.58C92.9 219.898 103.074 196.431 119.196 178.181C116.652 171.663 107.742 144.714 121.744 108.645C121.744 108.645 143.378 101.69 192.156 135.589C213.04 129.843 234.577 126.92 256.212 126.895C277.845 126.895 299.898 129.941 320.262 135.589C369.046 101.69 390.679 108.645 390.679 108.645C404.682 144.714 395.766 171.663 393.223 178.181C409.769 196.431 419.524 219.898 419.524 248.58C419.524 349.407 359.716 371.566 302.447 378.089C311.782 386.345 319.837 401.988 319.837 426.761C319.837 461.961 319.418 490.211 319.418 498.899C319.418 505.854 324.085 514.115 336.808 511.507C438.613 476.734 511.999 378.521 511.999 262.49C512.418 117.333 397.466 0 256.212 0Z" fill="white"/>
</svg>
