<svg width="376" height="512" viewBox="0 0 376 512" fill="none" xmlns="http://www.w3.org/2000/svg">
<path d="M104.381 169.33C104.763 169.676 105.977 170.642 107.521 170.569C111.754 170.387 114.702 163.082 115.743 160.55C120.757 148.455 127.088 137.052 133.437 125.741C143.759 107.325 152.866 86.5958 180.551 50.3098C191.584 35.8285 189.45 38.2145 202.634 25.9372C209.451 19.58 216.824 14.0971 225.272 10.5815C234.327 6.81077 243.417 7.32082 250.338 14.8257C257.312 22.3851 254.519 31.5658 251.119 40.1453C248.569 46.6116 245.342 50.6557 239.791 57.7416C235.94 62.6597 234.553 64.2627 231.569 68.0882C227.822 72.879 222.705 80.1103 217.396 90.0378C196.805 129.203 182.199 158.108 179.405 164.52C178.52 166.542 176.186 173.107 176.785 175.457C177.383 177.808 179.567 178.763 181.105 179.33C185.16 180.824 188.252 174.575 190.038 170.787C215.729 116.612 220.621 98.9077 257.346 52.6768C265.534 42.3668 275.855 28.5412 284.997 19.1791C291.485 12.5304 298.823 6.8655 307.132 2.94902C317.367 -1.87809 330.238 -0.712281 335.321 5.95458C337.264 8.50477 338.426 11.0731 338.999 13.6234C340.525 20.4725 338.409 27.0846 334.385 34.3528C326.977 47.7049 317.471 55.8653 314.574 58.434C305.935 66.0846 298.476 77.3052 283.574 99.7458C256.738 140.128 242.896 185.67 248.898 189.912C249.088 190.057 249.817 190.495 250.736 190.476C255.628 190.367 258.976 177.289 259.983 173.645C261.474 168.253 269.836 152.497 286.558 120.983C296.88 101.547 303.368 89.3244 315.372 75.2087C327.22 61.2921 343.249 42.6404 358.81 46.337C365.853 48.0128 372.289 54.2791 374.648 61.6017C375.498 64.2247 377.302 70.7825 372.583 83.4056C366.772 98.9071 357.856 105.756 349.182 115.883C342.868 123.261 337.178 134.591 325.798 157.25C317.576 173.626 307.601 195.647 298.199 222.827C297.436 225.487 295.423 232.955 289.421 236.999C281.529 242.318 271.38 238.875 267.529 237.728C245.065 231.024 221.143 237.618 204.246 242.281C204.246 242.281 168.321 252.19 142.943 284.578C133.333 296.819 127.417 309.825 126.481 311.974C122.907 320.207 118.796 330.627 117.391 345.018C114.615 373.562 125.578 395.31 147.8 411.032C184.28 436.826 239.255 430.796 266.003 403.928C270.357 399.557 279.776 390.103 278.701 378.19C277.885 369.191 271.242 360.357 263.002 356.95C248.482 350.939 239.843 366.277 214.013 367.661C204.558 368.171 189.38 368.991 180.447 357.843C170.142 344.965 176.717 324.527 177.116 323.306C180.256 313.833 185.946 307.913 189.033 305.126C197.863 298.751 216.442 287.184 242.201 284.816C253.685 283.759 276.93 281.574 299.498 296.529C331.815 317.968 337.261 356.769 337.869 361.649C343.75 408.735 311.484 444.091 298.44 458.356C271.726 487.592 241.612 497.557 224.663 502.929C209.605 507.702 163.202 521.637 109.963 501.144C76.1877 488.138 55.5467 467.371 51.0164 462.747C37.0694 448.466 25.655 431.58 17.2777 412.837C13.5479 404.476 5.08274 383.965 1.61327 350.43C-6.73073 269.789 18.6134 191.643 47.2191 148.129C58.3214 131.226 79.5021 97.5267 88.973 87.3064C94.7323 81.0949 101.897 72.3879 120.266 61.5313C125.852 58.2343 131.663 55.2832 138.029 54.6459C142.661 54.1905 146.113 55.5566 148.056 58.2343C150.207 61.2034 150.12 65.3202 149.201 69.5097C145.506 86.3592 128.714 107.379 117.593 126.816C107.359 144.667 99.7084 165.067 104.375 169.332L104.381 169.33Z" fill="url(#paint0_linear_50_36)"/>
<defs>
<linearGradient id="paint0_linear_50_36" x1="51.5" y1="447" x2="332" y2="201.5" gradientUnits="userSpaceOnUse">
<stop stop-color="#3F3FC9"/>
<stop offset="1" stop-color="#8981DF"/>
</linearGradient>
</defs>
</svg>
