<svg width="513" height="512" viewBox="0 0 513 512"  xmlns="http://www.w3.org/2000/svg">
<path fill="currentColor" d="M173.381 169.33C173.763 169.676 174.977 170.642 176.521 170.569C180.754 170.387 183.702 163.082 184.743 160.55C189.757 148.455 196.088 137.052 202.437 125.741C212.759 107.325 221.866 86.5958 249.551 50.3098C260.584 35.8285 258.45 38.2145 271.634 25.9372C278.451 19.58 285.824 14.0971 294.272 10.5815C303.327 6.81077 312.417 7.32082 319.338 14.8257C326.312 22.3851 323.519 31.5658 320.119 40.1453C317.569 46.6116 314.342 50.6557 308.791 57.7416C304.94 62.6597 303.553 64.2627 300.569 68.0882C296.822 72.879 291.705 80.1103 286.396 90.0378C265.805 129.203 251.199 158.108 248.405 164.52C247.52 166.542 245.186 173.107 245.785 175.457C246.383 177.808 248.567 178.763 250.105 179.33C254.16 180.824 257.252 174.575 259.038 170.787C284.729 116.612 289.621 98.9077 326.346 52.6768C334.534 42.3668 344.855 28.5412 353.997 19.1791C360.485 12.5304 367.823 6.8655 376.132 2.94902C386.367 -1.87809 399.238 -0.712281 404.321 5.95458C406.264 8.50477 407.426 11.0731 407.999 13.6234C409.525 20.4725 407.409 27.0846 403.385 34.3528C395.977 47.7049 386.471 55.8653 383.574 58.434C374.935 66.0846 367.476 77.3052 352.574 99.7458C325.738 140.128 311.896 185.67 317.898 189.912C318.088 190.057 318.817 190.495 319.736 190.476C324.628 190.367 327.976 177.289 328.983 173.645C330.474 168.253 338.836 152.497 355.558 120.983C365.88 101.547 372.368 89.3244 384.372 75.2087C396.22 61.2921 412.249 42.6404 427.81 46.337C434.853 48.0128 441.289 54.2791 443.648 61.6017C444.498 64.2247 446.302 70.7825 441.583 83.4056C435.772 98.9071 426.856 105.756 418.182 115.883C411.868 123.261 406.178 134.591 394.798 157.25C386.576 173.626 376.601 195.647 367.199 222.827C366.436 225.487 364.423 232.955 358.421 236.999C350.529 242.318 340.38 238.875 336.529 237.728C314.065 231.024 290.143 237.618 273.246 242.281C273.246 242.281 237.321 252.19 211.943 284.578C202.333 296.819 196.417 309.825 195.481 311.974C191.907 320.207 187.796 330.627 186.391 345.018C183.615 373.562 194.578 395.31 216.8 411.032C253.28 436.826 308.255 430.796 335.003 403.928C339.357 399.557 348.776 390.103 347.701 378.19C346.885 369.191 340.242 360.357 332.002 356.95C317.482 350.939 308.843 366.277 283.013 367.661C273.558 368.171 258.38 368.991 249.447 357.843C239.142 344.965 245.717 324.527 246.116 323.306C249.256 313.833 254.946 307.913 258.033 305.126C266.863 298.751 285.442 287.184 311.201 284.816C322.685 283.759 345.93 281.574 368.498 296.529C400.815 317.968 406.261 356.769 406.869 361.649C412.75 408.735 380.484 444.091 367.44 458.356C340.726 487.592 310.612 497.557 293.663 502.929C278.605 507.702 232.202 521.637 178.963 501.144C145.188 488.138 124.547 467.371 120.016 462.747C106.069 448.466 94.655 431.58 86.2777 412.837C82.5479 404.476 74.0827 383.965 70.6133 350.43C62.2693 269.789 87.6134 191.643 116.219 148.129C127.321 131.226 148.502 97.5267 157.973 87.3064C163.732 81.0949 170.897 72.3879 189.266 61.5313C194.852 58.2343 200.663 55.2832 207.029 54.6459C211.661 54.1905 215.113 55.5566 217.056 58.2343C219.207 61.2034 219.12 65.3202 218.201 69.5097C214.506 86.3592 197.714 107.379 186.593 126.816C176.359 144.667 168.708 165.067 173.375 169.332L173.381 169.33Z"/>
</svg>
