<svg width="512" height="512" viewBox="0 0 512 512" fill="none" xmlns="http://www.w3.org/2000/svg">
<path fill-rule="evenodd" clip-rule="evenodd" d="M114.076 4.48388C120.06 3.98739 150.849 3.87878 256.124 3.87878H338.197C397.344 3.98155 400.71 4.46903 411.946 6.09623L412.597 6.19054C436.909 9.69697 457.311 19.3939 473.993 35.328C483.341 44.3229 489.779 53.12 495.578 64.8999C502.645 79.2902 506.116 92.9047 507.706 113.152C508.048 117.496 508.203 186.632 508.203 255.814C508.203 324.984 508.059 394.248 507.718 398.592C506.147 418.517 502.676 432.248 495.83 446.367C482.216 474.449 457.198 494.929 426.983 502.726C416.026 505.557 406.116 506.888 389.05 507.691C382.961 508.001 319.273 508.079 255.585 508.079C191.897 508.079 128.248 507.885 122.004 507.613C107.265 506.915 95.7838 505.441 85.389 502.765C55.3681 495.007 29.8852 474.217 16.5426 446.522C9.56096 432.054 6.26409 418.828 4.51869 397.805C4.01446 391.831 3.8981 361.072 3.8981 255.88C3.8981 242.991 3.89297 231.296 3.88831 220.664C3.88015 202.061 3.87342 186.716 3.8981 173.94C3.99724 114.725 4.4788 111.403 6.11679 100.103C6.14486 99.9089 6.17327 99.7129 6.20203 99.5142C9.71222 75.2252 19.4089 54.7918 35.4084 38.1828C44.1936 29.0754 53.0952 22.5784 64.3821 16.9736C79.0279 9.68145 92.4714 6.27975 114.076 4.48388ZM179.241 70.943C199.096 70.0394 205.443 69.8183 255.979 69.8182C306.53 69.8183 312.853 70.0394 332.708 70.943C352.528 71.8507 366.065 74.9886 377.934 79.5927C390.19 84.3442 400.546 90.7055 410.902 101.062C421.259 111.41 427.62 121.798 432.39 134.043C436.967 145.881 440.109 159.41 441.04 179.231C441.932 199.09 442.165 205.436 442.165 256C442.165 306.564 441.932 312.894 441.04 332.753C440.109 352.566 436.967 366.099 432.39 377.941C427.62 390.183 421.259 400.57 410.902 410.919C400.558 421.275 390.186 427.652 377.945 432.407C366.1 437.011 352.556 440.149 332.736 441.057C312.877 441.961 306.551 442.182 255.984 442.182C205.426 442.182 199.084 441.961 179.226 441.057C159.409 440.149 145.877 437.011 134.031 432.407C121.794 427.652 111.407 421.275 101.063 410.919C90.7104 400.57 84.3494 390.183 79.5903 377.937C74.9902 366.099 71.8523 352.57 70.9409 332.75C70.041 312.89 69.816 306.564 69.816 256C69.816 205.436 70.0488 199.087 70.937 179.227C71.8291 159.414 74.9708 145.881 79.5864 134.039C84.3572 121.798 90.7182 111.41 101.074 101.062C111.423 90.7093 121.81 84.3481 134.055 79.5927C145.892 74.9886 159.421 71.8507 179.241 70.943ZM255.979 69.8182C255.988 69.8182 255.998 69.8182 256.008 69.8182H255.95C255.959 69.8182 255.969 69.8182 255.979 69.8182ZM249.803 103.368C246.038 103.366 242.549 103.365 239.306 103.37V103.323C204.608 103.362 197.952 103.595 180.777 104.37C162.625 105.204 152.769 108.23 146.206 110.79C137.518 114.172 131.312 118.206 124.796 124.722C118.28 131.239 114.238 137.445 110.864 146.133C108.316 152.696 105.283 162.548 104.453 180.701C103.56 200.328 103.382 206.192 103.382 255.911C103.382 305.629 103.56 311.525 104.453 331.152C105.279 349.304 108.316 359.156 110.864 365.712C114.246 374.404 118.28 380.594 124.796 387.111C131.312 393.627 137.518 397.661 146.206 401.036C152.773 403.584 162.625 406.617 180.777 407.455C200.403 408.347 206.295 408.541 256.008 408.541C305.717 408.541 311.612 408.347 331.238 407.455C349.391 406.625 359.25 403.6 365.805 401.04C374.497 397.665 380.684 393.631 387.2 387.115C393.716 380.602 397.758 374.416 401.132 365.727C403.68 359.172 406.713 349.32 407.544 331.167C408.436 311.54 408.63 305.645 408.63 255.957C408.63 206.27 408.436 200.374 407.544 180.748C406.717 162.595 403.68 152.743 401.132 146.188C397.75 137.499 393.716 131.293 387.2 124.777C380.688 118.26 374.493 114.226 365.805 110.852C359.242 108.304 349.391 105.27 331.238 104.44C311.608 103.548 305.717 103.37 256.008 103.37C253.859 103.37 251.792 103.369 249.803 103.368ZM333.046 156.618C333.046 144.279 343.053 134.284 355.387 134.284V134.276C367.721 134.276 377.728 144.283 377.728 156.618C377.728 168.952 367.721 178.96 355.387 178.96C343.053 178.96 333.046 168.952 333.046 156.618ZM160.399 256C160.399 203.198 203.207 160.388 256.008 160.388C308.808 160.388 351.601 203.198 351.601 256C351.601 308.802 308.808 351.593 256.008 351.593C203.207 351.593 160.399 308.802 160.399 256ZM318.066 256C318.066 221.723 290.28 193.939 256.008 193.939C221.732 193.939 193.949 221.723 193.949 256C193.949 290.273 221.732 318.061 256.008 318.061C290.28 318.061 318.066 290.273 318.066 256Z" fill="white"/>
</svg>
