<svg width="1080" height="1080" viewBox="0 0 1080 1080" fill="none" xmlns="http://www.w3.org/2000/svg">
<path d="M368.54 261.87H261.94C249.73 261.87 239.79 271.81 239.79 284.02V787.6C239.79 799.82 249.73 809.75 261.94 809.75H368.54C380.75 809.75 390.69 799.81 390.69 787.6V284.02C390.69 271.81 380.75 261.87 368.54 261.87ZM346.39 306.17V765.45H284.09V306.17H346.39Z" fill="white"/>
<path d="M548.76 261.87H442.16C429.94 261.87 420.01 271.81 420.01 284.02V787.6C420.01 799.82 429.95 809.75 442.16 809.75H548.76C560.97 809.75 570.91 799.81 570.91 787.6V284.02C570.91 271.81 560.97 261.87 548.76 261.87ZM464.31 765.45V306.17H526.61V765.45H464.31Z" fill="white"/>
<path d="M919.72 741.33L732 274.04C729.79 268.55 725.58 264.24 720.14 261.92C714.7 259.6 708.68 259.53 703.19 261.74L604.27 301.48C598.78 303.69 594.48 307.9 592.15 313.34C589.82 318.78 589.76 324.8 591.97 330.29L779.69 797.58C781.9 803.07 786.11 807.37 791.55 809.69C794.31 810.87 797.24 811.47 800.25 811.47C803.09 811.47 805.87 810.93 808.51 809.87L907.43 770.13C912.92 767.92 917.22 763.71 919.55 758.27C921.87 752.83 921.94 746.81 919.73 741.32L919.72 741.33ZM870.36 737.29L812.55 760.51L641.34 334.33L699.15 311.11L870.36 737.29Z" fill="white"/>
</svg>
