<svg width="512" height="512" viewBox="0 0 512 512" fill="none" xmlns="http://www.w3.org/2000/svg">
<g clip-path="url(#clip0_26_30)">
<path d="M473.6 0H38.4C16.4571 0 0 16.4571 0 36.5714V475.429C0 495.543 16.4571 512 38.4 512H475.429C495.543 512 513.829 495.543 513.829 475.429V36.5714C512 16.4571 495.543 0 473.6 0ZM151.771 437.029H76.8V192H153.6V437.029H151.771ZM113.371 159.086C89.6 159.086 69.4857 138.971 69.4857 115.2C69.4857 91.4286 89.6 71.3143 113.371 71.3143C137.143 71.3143 157.257 91.4286 157.257 115.2C157.257 138.971 138.971 159.086 113.371 159.086ZM437.029 437.029H362.057V318.171C362.057 290.743 362.057 254.171 321.829 254.171C281.6 254.171 276.114 285.257 276.114 316.343V437.029H201.143V192H274.286V224.914H276.114C287.086 206.629 310.857 184.686 347.429 184.686C424.229 184.686 438.857 235.886 438.857 301.714V437.029H437.029Z" fill="white"/>
</g>
<defs>
<clipPath id="clip0_26_30">
<rect width="512" height="512" fill="white"/>
</clipPath>
</defs>
</svg>
