<svg width="512" height="512" viewBox="0 0 512 512" fill="none" xmlns="http://www.w3.org/2000/svg">
<path fill-rule="evenodd" clip-rule="evenodd" d="M357.596 390.243C421.748 382.582 477.605 343.056 484.625 306.939C495.687 250.045 494.774 168.098 494.774 168.098C494.774 57.0293 422.004 24.4735 422.004 24.4735C385.314 7.62175 322.309 0.53515 256.853 0H255.245C189.788 0.53515 126.825 7.62175 90.1315 24.4735C90.1315 24.4735 17.3594 57.0293 17.3594 168.098C17.3594 174.831 17.3246 181.913 17.2884 189.286C17.1877 209.762 17.0761 232.479 17.6683 256.191C20.311 364.809 37.582 471.859 138.008 498.44C184.312 510.696 224.068 513.261 256.086 511.501C314.15 508.282 346.744 490.779 346.744 490.779L344.83 448.651C344.83 448.651 303.336 461.735 256.737 460.141C210.568 458.557 161.828 455.162 154.361 398.477C153.671 393.498 153.326 388.174 153.326 382.583C153.326 382.583 198.648 393.661 256.086 396.292C291.207 397.903 324.144 394.234 357.596 390.243ZM408.937 311.2V176.714C408.937 149.228 401.939 127.387 387.884 111.227C373.386 95.068 354.402 86.7842 330.839 86.7842C303.571 86.7842 282.923 97.2637 269.274 118.226L256 140.473L242.729 118.226C229.077 97.2637 208.43 86.7842 181.165 86.7842C157.599 86.7842 138.615 95.068 124.119 111.227C110.062 127.387 103.063 149.228 103.063 176.714V311.2H156.344V180.667C156.344 153.151 167.921 139.185 191.079 139.185C216.683 139.185 229.519 155.752 229.519 188.512V259.96H282.485V188.512C282.485 155.752 295.317 139.185 320.922 139.185C344.079 139.185 355.657 153.151 355.657 180.667V311.2H408.937Z" fill="white"/>
</svg>
