<svg width="512" height="512" viewBox="0 0 512 512" fill="none" xmlns="http://www.w3.org/2000/svg">
<path d="M458.155 152.798C458.464 157.278 458.465 161.758 458.465 166.279C458.465 304.044 353.587 462.929 161.814 462.929V462.847C105.164 462.929 49.6903 446.702 2 416.106C10.2374 417.097 18.5161 417.592 26.8155 417.613C73.7626 417.654 119.368 401.902 156.302 372.896C111.688 372.049 72.5652 342.96 58.8981 300.493C74.5264 303.507 90.6297 302.888 105.969 298.697C57.329 288.87 22.3355 246.134 22.3355 196.503V195.182C36.8284 203.254 53.0555 207.734 69.6542 208.23C23.8426 177.613 9.72129 116.669 37.3858 69.0196C90.32 134.155 168.421 173.753 252.261 177.943C243.858 141.732 255.337 103.786 282.423 78.3306C324.415 38.857 390.459 40.8803 429.933 82.8519C453.283 78.248 475.662 69.6803 496.142 57.5409C488.359 81.6751 472.07 102.176 450.31 115.203C470.975 112.767 491.166 107.234 510.181 98.7899C496.183 119.765 478.552 138.036 458.155 152.798Z" fill="white"/>
</svg>
