<svg width="124" height="124" viewBox="0 0 1024 1024" fill="none" xmlns="http://www.w3.org/2000/svg">
<path d="M348.481 342.715C349.228 343.393 351.607 345.285 354.632 345.142C362.924 344.785 368.7 330.476 370.739 325.516C380.56 301.822 392.964 279.483 405.402 257.325C425.621 221.248 443.462 180.64 497.697 109.556C519.31 81.1875 515.13 85.8617 540.957 61.8106C554.312 49.3569 568.755 38.616 585.304 31.7291C603.043 24.3422 620.85 25.3414 634.409 40.0434C648.07 54.852 642.599 72.837 635.938 89.6439C630.943 102.311 624.622 110.234 613.747 124.115C606.203 133.749 603.485 136.89 597.64 144.384C590.299 153.769 580.275 167.935 569.875 187.383C529.538 264.106 500.924 320.732 495.451 333.293C493.718 337.254 489.147 350.114 490.318 354.718C491.49 359.322 495.769 361.194 498.781 362.304C506.726 365.232 512.782 352.991 516.282 345.568C566.61 239.441 576.194 204.759 648.137 114.193C664.177 93.9958 684.396 66.9118 702.305 48.5715C715.014 35.5468 729.389 24.4494 745.667 16.7771C765.717 7.32084 790.932 9.60465 800.889 22.6649C804.695 27.6607 806.971 32.6921 808.093 37.688C811.084 51.1053 806.938 64.0583 799.054 78.2966C784.544 104.453 765.921 120.439 760.246 125.471C743.322 140.459 728.71 162.44 699.517 206.401C646.945 285.509 619.83 374.724 631.587 383.034C631.96 383.32 633.388 384.176 635.189 384.14C644.772 383.926 651.33 358.305 653.302 351.169C656.224 340.606 672.604 309.74 705.363 248.004C725.583 209.929 738.293 185.985 761.809 158.333C785.019 131.07 816.419 94.5318 846.903 101.773C860.699 105.056 873.307 117.332 877.929 131.677C879.594 136.815 883.128 149.662 873.885 174.39C862.501 204.757 845.034 218.175 828.043 238.013C815.673 252.466 804.527 274.661 782.234 319.051C766.126 351.131 746.586 394.27 728.167 447.515C726.672 452.725 722.73 467.355 710.972 475.277C695.51 485.697 675.63 478.953 668.086 476.705C624.078 463.573 577.216 476.49 544.115 485.625C544.115 485.625 473.738 505.037 424.023 568.483C405.197 592.463 393.609 617.942 391.773 622.152C384.773 638.281 376.719 658.692 373.966 686.885C368.529 742.803 390.006 785.406 433.538 816.206C505.002 866.735 612.697 854.923 665.095 802.289C673.625 793.725 692.077 775.205 689.97 751.868C688.373 734.24 675.358 716.933 659.216 710.26C630.772 698.485 613.849 728.531 563.247 731.242C544.727 732.241 514.992 733.847 497.492 712.009C477.306 686.78 490.186 646.742 490.967 644.351C497.118 625.795 508.265 614.198 514.313 608.738C531.611 596.249 568.006 573.589 618.468 568.95C640.965 566.88 686.501 562.599 730.712 591.895C794.021 633.895 804.69 709.904 805.88 719.465C817.401 811.705 754.192 880.968 728.64 908.913C676.307 966.186 617.314 985.706 584.11 996.231C554.614 1005.58 463.71 1032.88 359.417 992.733C293.251 967.255 252.815 926.573 243.94 917.514C216.618 889.538 194.258 856.459 177.847 819.741C170.54 803.363 153.957 763.182 147.16 697.488C130.815 539.512 180.463 386.426 236.501 301.183C258.251 268.069 299.743 202.053 318.297 182.032C329.579 169.864 343.614 152.807 379.599 131.539C390.542 125.08 401.926 119.299 414.397 118.05C423.471 117.158 430.233 119.835 434.039 125.08C438.253 130.897 438.083 138.961 436.282 147.168C429.044 180.176 396.149 221.354 374.363 259.43C354.314 294.4 339.327 334.365 348.469 342.719L348.481 342.715Z" fill="white"/>
</svg>
