<svg
  width="240px"
  height="320px"
  enable-background="new 0 0 200 200"
  version="1.1"
  viewBox="0 0 200 200"
  xml:space="preserve"
  xmlns="http://www.w3.org/2000/svg"
>
  <g transform="matrix(1.6417 0 0 1.6417 -64.171 -64.171)">
    <path
      id="graasp"
      d="m72.933 73.236c0.12375 0.10687 0.5175 0.405 1.0181 0.3825 1.3725-0.05625 2.3287-2.3118 2.6662-3.0937 1.6256-3.7349 3.6787-7.2562 5.7374-10.749 3.3468-5.6868 6.2999-12.088 15.277-23.293 3.5775-4.4718 2.8856-3.735 7.1605-7.5262 2.2106-1.9631 4.6012-3.6562 7.3405-4.7418 2.9362-1.1644 5.8837-1.0069 8.128 1.3106 2.2612 2.3343 1.3556 5.1693 0.25312 7.8186-0.82687 1.9968-1.8731 3.2456-3.6731 5.4337-1.2487 1.5187-1.6987 2.0137-2.6662 3.195-1.215 1.4794-2.8743 3.7124-4.5956 6.778-6.6768 12.094-11.413 21.02-12.319 23-0.28688 0.62437-0.73124 1.7494-0.405 2.97 0.20812 0.76499 0.45761 1.4281 0.95624 1.6031 1.1147 0.39125 2.3175-1.4681 2.8968-2.6381 8.3305-16.729 9.9168-22.196 21.825-36.472 2.655-3.1837 6.0018-7.453 8.9661-10.344 2.1037-2.0531 4.4831-3.8024 7.1774-5.0118 3.3187-1.4906 7.4924-1.1306 9.1405 0.92811 0.62998 0.78749 1.0068 1.5806 1.1925 2.3681 0.49499 2.115-0.19125 4.1568-1.4962 6.4012-2.4018 4.1231-5.4843 6.643-6.4237 7.4362-2.8012 2.3625-5.2199 5.8274-10.052 12.757-8.7018 12.47-13.19 26.533-11.244 27.843 0.0618 0.04499 0.29811 0.18 0.59623 0.17438 1.5862-0.03375 2.6718-4.0724 2.9981-5.1974 0.48374-1.665 3.195-6.5305 8.6174-16.262 3.3468-6.0018 5.4506-9.7761 9.343-14.135 3.8418-4.2974 9.0393-10.057 14.085-8.9155 2.2837 0.5175 4.3706 2.4525 5.1356 4.7137 0.27562 0.80999 0.86061 2.835-0.66937 6.733-1.8844 4.7868-4.7756 6.9018-7.588 10.029-2.0475 2.2781-3.8924 5.7768-7.5824 12.774-2.6662 5.0568-5.9006 11.857-8.9493 20.25-0.2475 0.82124-0.89999 3.1275-2.8462 4.3762-2.5593 1.6425-5.8499 0.57938-7.0986 0.22501-7.2843-2.07-15.041-0.03375-20.52 1.4062 0 0-11.649 3.0599-19.878 13.061-3.1162 3.78-5.0343 7.7962-5.3381 8.4599-1.1587 2.5425-2.4919 5.7599-2.9475 10.204-0.89999 8.8143 2.655 15.53 9.8605 20.385 11.829 7.9649 29.655 6.103 38.328-2.1937 1.4119-1.35 4.4662-4.2693 4.1175-7.948-0.26439-2.7787-2.4187-5.5068-5.0906-6.5587-4.7081-1.8562-7.5093 2.88-15.885 3.3074-3.0656 0.15751-7.9874 0.41063-10.884-3.0318-3.3412-3.9768-1.2094-10.288-1.08-10.665 1.0181-2.925 2.8631-4.7531 3.8643-5.6137 2.8631-1.9687 8.8874-5.5405 17.24-6.2718 3.7237-0.32625 11.261-1.0012 18.579 3.6168 10.479 6.6205 12.245 18.602 12.442 20.109 1.9069 14.54-8.5555 25.458-12.785 29.863-8.6624 9.028-18.427 12.105-23.923 13.764-4.8824 1.4737-19.929 5.7768-37.192-0.55125-10.952-4.0162-17.645-10.429-19.114-11.857-4.5224-4.4099-8.2236-9.6242-10.94-15.412-1.2094-2.5818-3.9543-8.9155-5.0793-19.271-2.7056-24.902 5.5124-49.033 14.788-62.47 3.6-5.2199 10.468-15.626 13.539-18.782 1.8675-1.9181 4.1906-4.6068 10.147-7.9593 1.8112-1.0181 3.6956-1.9294 5.7599-2.1262 1.5019-0.14062 2.6212 0.28124 3.2512 1.1081 0.69749 0.91686 0.66937 2.1881 0.37125 3.4818-1.1981 5.2031-6.643 11.694-10.249 17.696-3.3187 5.5124-5.7993 11.812-4.2862 13.129z"
      fill="#fff"
      stroke-width="9.1707"
    />
  </g>
</svg>
