<svg
  id="computer"
  class="computer"
  xmlns="http://www.w3.org/2000/svg"
  viewBox="0 0 394.27 263.44"
>
  <defs id="computer">
    <style id="computer">
      .comp-cls-1,
      .comp-cls-9 {
        fill: none;
      }
      .comp-cls-8 {
        fill: #fff;
      }
      .comp-cls-19,
      .comp-cls-9 {
        stroke-miterlimit: 10;
        stroke-linecap: round;
      }
      .comp-cls-7 {
        fill: #e1e2e1;
      }
      .comp-cls-9 {
        stroke: #555aa8;
        stroke-width: 7.26px;
      }
      .comp-cls-11 {
        fill: #555aa8;
      }
      .comp-cls-13 {
        fill: #2ab34b;
      }
      .comp-cls-19 {
        stroke-width: 2.42px;
        fill: #353434;
        stroke: #475ca9;
      }
      .comp-cls-22 {
        fill: #bce6fb;
      }
      .comp-cls-27 {
        fill: #d4edeb;
      }
    </style>
    <clipPath id="comp-clip-path">
      <path
        class="comp-cls-1"
        d="M42.23 11h309.6a6.49 6.49 0 0 1 6.49 6.49V225.8a6.21 6.21 0 0 1-6.21 6.21H41.94a6.21 6.21 0 0 1-6.21-6.21V17.48a6.49 6.49 0 0 1 6.5-6.48z"
      />
    </clipPath>
  </defs>
  <g id="Camada_1" data-name="Camada 1">
    <g id="Layer_1-2" data-name="Layer 1-2">
      <rect
        x="30.84"
        y="5.6"
        width="332.39"
        height="231.86"
        rx="12"
        stroke-miterlimit="10"
        stroke="#353635"
        stroke-width="10.89"
        fill="#fff"
      />
      <path
        d="M200.9 5.6a3.87 3.87 0 1 1-3.9-3.87 4.07 4.07 0 0 1 3.9 3.87z"
        fill="#58595b"
      />
      <path
        stroke-linecap="round"
        stroke="#c9c9c9"
        stroke-width="14.52"
        stroke-miterlimit="10"
        fill="none"
        d="M7.39 255.76h379.27"
      />
      <path
        stroke="#9b9b9b"
        stroke-width="6.05"
        stroke-linecap="round"
        stroke-miterlimit="10"
        fill="none"
        d="M165.58 251.5h62.9"
      />
    </g>
    <g clip-path="url(#comp-clip-path)">
      <path
        class="comp-cls-7"
        d="M96.46 229.82s-.1 1-.2 2.26-1.84 2.24-3.3 2.24h-52.3c-1.45 0-2.84-.46-3.06-1-.3-2-2.83-4.09-2.82-6.14l.76-202.28c0-1.46.09-3.67.19-4.91s3.48-2.26 4.93-2.26H93c1.45 0 2.84.47 3.07 1a41.91 41.91 0 0 1 .42 6.13v202.3c-.02 1.46-.02 2.66-.03 2.66z"
      />
      <path class="comp-cls-8" d="M37.17 54.02h59.3v10.89h-59.3z" />
      <path
        class="comp-cls-9"
        d="M46.85 95.16h39.94M46.85 83.06h39.94M46.85 70.96h39.94"
      />
      <path
        stroke="#8b91c8"
        stroke-width="7.26"
        stroke-linecap="round"
        stroke-miterlimit="10"
        fill="none"
        d="M46.85 59.46h39.94"
      />
      <path
        class="comp-cls-11"
        d="M72 23a.87.87 0 0 1 .87.89c0 .54-.2.77-.76 1.38-.2.23-.45.49-.74.85A34 34 0 0 0 67.21 33a.25.25 0 0 0 .13.33h.09a.24.24 0 0 0 .22-.14 33.14 33.14 0 0 1 4.13-6.88c1-1.09 1.34-1.17 1.78-1.17a.89.89 0 0 1 .84.92c0 .58-.39 1.13-1 2.05a31.69 31.69 0 0 0-4 7.31.63.63 0 0 1-.58.37h-.13a7.24 7.24 0 0 0-1.31-.11 7.78 7.78 0 0 0-4.79 1.66 4.14 4.14 0 0 0-1.52 3.06c0 2.57 2.13 3.73 4.25 3.73s3.7-1.09 3.7-2.07a.85.85 0 0 0-.28-.73 1 1 0 0 0-.57-.14 5.64 5.64 0 0 0-1 .14 4 4 0 0 1-1.23.2 3.79 3.79 0 0 1-1.52-.31 1.21 1.21 0 0 1-.62-.73 1.43 1.43 0 0 1 .08-.84c.21-.34.28-.34.57-.34a3.1 3.1 0 0 0 .68-.1c.22 0 .58-.16 1-.3a20 20 0 0 1 5.06-1.17c1.37 0 2.08 1.57 2.08 3.14a7.56 7.56 0 0 1-1.94 4.64 9.55 9.55 0 0 1-12.74.89 8 8 0 0 1-3-6.47c0-6.11 5.1-14.57 7.34-14.57a.57.57 0 0 1 .38.22.63.63 0 0 1 .17.43 1.29 1.29 0 0 1-.29.7l-.3.44a29.39 29.39 0 0 0-3.22 6 .26.26 0 0 0 .16.32H60a.26.26 0 0 0 .24-.18 29.26 29.26 0 0 1 3.16-5.85l.2-.28.09-.16c1.74-2.36 3.21-3.74 4.13-3.74H68a.81.81 0 0 1 .7.91 2.85 2.85 0 0 1-.7 1.42c-.3.4-.59.81-.87 1.2a29.92 29.92 0 0 0-3.3 6.13.27.27 0 0 0 .17.32h.06a.26.26 0 0 0 .25-.19c.64-2.17 5.27-10 7.52-10H72m0-2.42h-.28a4 4 0 0 0-2.12.74 3.27 3.27 0 0 0-1.27-.45 2.73 2.73 0 0 0-.41 0c-1.29 0-2.57.69-4 2.24a2.84 2.84 0 0 0-.49-.1h-.28c-2.69 0-5.1 3.41-6.64 6.27C55.49 31 53.32 35.5 53.3 40a10.5 10.5 0 0 0 3.84 8.39 12.09 12.09 0 0 0 7.4 2.57 11.82 11.82 0 0 0 8.61-3.67 10 10 0 0 0 2.57-6.12v-.14c0-2.87-1.5-5-3.67-5.48a29.34 29.34 0 0 1 3.29-5.86 6.05 6.05 0 0 0 1.5-3.42 3.35 3.35 0 0 0-1.7-3A3.32 3.32 0 0 0 72 20.61z"
      />
      <path
        class="comp-cls-7"
        d="M357.61 229.48c0 2.63-.45 4.84-1 4.84H292c-.51 0-.94-2.06-.94-4.53V21c0-2.46.43-4.53.94-4.53h65.37c.5 0 .93 2.07.93 4.53v208.48z"
      />
      <path class="comp-cls-8" d="M297.13 27.9h54.46v116.17h-54.46z" />
      <path fill="#c8c8c8" d="M297.13 107.77h54.46v36.3h-54.46z" />
      <path class="comp-cls-8" d="M301.98 112.61h35.09v27.83h-35.09z" />
      <circle class="comp-cls-11" cx="345.23" cy="126.15" r="5.2" />
      <path
        class="comp-cls-7"
        d="M323.65 44.23c0 2.94-.79 5.45-1.7 5.45h-17.08c-.9 0-1.69-2.51-1.69-5.45s.79-5.44 1.69-5.44H322c.92 0 1.65 2.51 1.65 5.44zM348.31 63.59c0 2.94-.79 5.45-1.7 5.45h-17.12c-.91 0-1.7-2.51-1.7-5.45s.79-5.44 1.7-5.44h17.12c.97 0 1.7 2.52 1.7 5.44z"
      />
      <path
        class="comp-cls-11"
        d="M305.05 37.63a2.41 2.41 0 0 0 2.14-2.63c0-1.43-.31-2.65-2.13-2.65s-2.14 1.15-2.14 2.65a2.42 2.42 0 0 0 2.08 2.63z"
      />
      <path
        class="comp-cls-11"
        d="M309.28 41.21c0-2.51-.39-3.21-3-3.66a1.92 1.92 0 0 1-2.47 0c-2.61.43-3 1.14-3 3.57v.45s.63 1.2 4.28 1.2 4.2-1.2 4.2-1.2v-.36z"
      />
      <path
        class="comp-cls-7"
        d="M323.56 80.53c0 2.93-.79 5.45-1.7 5.45H304.8c-.93 0-1.71-2.52-1.71-5.45s.78-5.44 1.71-5.44h17.06c.98 0 1.7 2.48 1.7 5.44z"
      />
      <path
        class="comp-cls-13"
        d="M345.75 56.66a2.4 2.4 0 0 0 2.13-2.66c0-1.43-.3-2.65-2.13-2.65s-2.14 1.17-2.14 2.65a2.39 2.39 0 0 0 2.12 2.65zM350.49 60.57c0-2.49-.39-3.2-3.05-3.65a2 2 0 0 1-2.48 0c-2.63.44-3 1.14-3 3.57v.45s.63 1.2 4.23 1.2 4.24-1.2 4.24-1.2v-.37z"
      />
      <path
        class="comp-cls-11"
        d="M305.05 73.46a2.42 2.42 0 0 0 2.14-2.64c0-1.43-.31-2.65-2.13-2.65s-2.14 1.15-2.14 2.65a2.4 2.4 0 0 0 2.08 2.63zM309.28 77.51c0-2.51-.39-3.21-3-3.66a1.92 1.92 0 0 1-2.47 0c-2.61.44-3 1.14-3 3.57v.45s.63 1.21 4.28 1.21 4.2-1.21 4.2-1.21v-.36z"
      />
      <rect
        x="142.76"
        y="89.92"
        width="106.49"
        height="66.15"
        rx="4.55"
        stroke-width="2.42"
        stroke="#434b60"
        fill="#8b91c8"
        stroke-miterlimit="10"
      />
      <path
        class="comp-cls-8"
        d="M189.75 133.11a.7.7 0 0 1-1-.63v-18.75a.7.7 0 0 1 1-.63l18.61 9.38a.7.7 0 0 1 0 1.25z"
      />
      <path
        stroke-width="2.42"
        stroke="#8b91c8"
        stroke-linecap="round"
        stroke-miterlimit="10"
        fill="none"
        d="M142.76 162.44h106.49"
      />
      <path
        fill="#566181"
        stroke-width="2.42"
        stroke="#434b60"
        stroke-linecap="round"
        stroke-miterlimit="10"
        d="M142.76 162.44h35.86"
      />
      <circle cx="178.62" cy="162.44" r="2.53" fill="#434b60" />
      <rect
        x="152.25"
        y="187.7"
        width="87.5"
        height="93.24"
        rx="6.85"
        stroke="#353434"
        stroke-width="2.42"
        stroke-miterlimit="10"
        fill="#fff"
      />
      <path
        class="comp-cls-19"
        d="M182.9 201.39h46.51M162.6 201.39h16.46M203.2 210.77h26.21M162.6 210.77h35.97M193.54 220.15h35.87M162.6 220.15h26.77M214.27 229.54h15.14M162.6 229.54h46.79M189.37 237.62h40.04M162.6 237.62h23.39M199.6 247h29.81M162.6 247h32.77M190.77 256.38h38.64M162.6 256.38h24.88"
      />
      <path
        d="M165 50.8V19.45h-4.17a1.34 1.34 0 0 0-1.4 1.26v40.12a1.35 1.35 0 0 0 1.4 1.26h61.25a1.35 1.35 0 0 0 1.4-1.26V57H172c-3.88.07-7-2.74-7-6.2z"
        fill="#e4e9f6"
      />
      <path
        d="M223.49 57.07v3.8a1.35 1.35 0 0 1-1.4 1.26h-61.25a1.35 1.35 0 0 1-1.4-1.26V20.71a1.34 1.34 0 0 1 1.4-1.26h6.95V17h-6.95a4.08 4.08 0 0 0-1.05.12 5.08 5.08 0 0 0-.95.33l-.34.19a4 4 0 0 0-1.13 1.07 2 2 0 0 0-.21.3 3.44 3.44 0 0 0-.37.86 3.3 3.3 0 0 0-.13.95v40.01a3.3 3.3 0 0 0 .13 1 3.22 3.22 0 0 0 .37.85 2.11 2.11 0 0 0 .21.31 3.93 3.93 0 0 0 1.13 1l.34.19a4 4 0 0 0 .95.33 5.2 5.2 0 0 0 1.05.13h61.25a4.72 4.72 0 0 0 2-.46l.35-.19a4.06 4.06 0 0 0 1.13-1l.21-.31a4.29 4.29 0 0 0 .37-.85 3.69 3.69 0 0 0 .13-1v-6.26h-2.78v2.5z"
        fill="#bec8dc"
      />
      <path
        class="comp-cls-22"
        d="M233.22 6.92h-10.45a21.84 21.84 0 0 1 4.37 18.39l10.23 9.21V10.68a4 4 0 0 0-4.15-3.76zM167.79 44.53l11.56-10.4a21.86 21.86 0 0 1 .29-27.21H172a4 4 0 0 0-4.18 3.79v33.82z"
      />
      <path
        d="M184.5 20.71a13.86 13.86 0 0 0 2.5 7.85 4.45 4.45 0 0 1 3.29 1.08l6.06 5.45a18.12 18.12 0 0 0 4.91.67c.49 0 1 0 1.45-.06l15.09-13.59.09-.08a11.67 11.67 0 0 0 .07-1.32c0-6.18-4.13-11.48-10-13.79h-13.3c-6.03 2.31-10.16 7.61-10.16 13.79zm16.71-8.78c5.38 0 9.75 3.93 9.75 8.78s-4.37 8.78-9.75 8.78-9.75-3.94-9.75-8.78 4.33-8.78 9.75-8.78z"
        fill="#faf9dd"
      />
      <path
        d="M223.65 22.11a4.53 4.53 0 0 0-5.8-.08l-.1.08-15.09 13.59-2.85 2.56 18.1 16.31h15.31a4 4 0 0 0 4.18-3.8V34.5l-10.26-9.19z"
        fill="#b8debb"
      />
      <path
        d="M190.24 29.64a4.45 4.45 0 0 0-3.24-1.08 4.32 4.32 0 0 0-2.62 1.08l-5 4.49-11.56 10.4v6.27a4 4 0 0 0 4.18 3.8h45.95l-18.1-16.34-3.51-3.17z"
        fill="#a2d079"
      />
      <path
        d="M191.46 20.71c0 4.84 4.36 8.78 9.75 8.78s9.79-3.94 9.79-8.78-4.37-8.78-9.74-8.78-9.8 3.93-9.8 8.78zm15.32 0a5.61 5.61 0 0 1-11.15 0 5.61 5.61 0 0 1 11.15 0z"
        fill="#fef6a7"
      />
      <path
        class="comp-cls-27"
        d="M217.91 20.71a11.67 11.67 0 0 1-.07 1.32 4.53 4.53 0 0 1 5.81.08l3.49 3.2a21.87 21.87 0 0 0-4.42-18.38h-14.84c5.9 2.3 10.03 7.6 10.03 13.78zM196.3 35.09l3.51 3.17 2.85-2.56c-.48 0-1 .06-1.45.06a18.12 18.12 0 0 1-4.91-.67zM174.75 20.71a22.16 22.16 0 0 0 4.6 13.42l5-4.49a4.32 4.32 0 0 1 2.65-1.08 13.86 13.86 0 0 1-2.45-7.85c0-6.18 4.13-11.48 10-13.79h-14.9a22.17 22.17 0 0 0-4.9 13.79z"
      />
      <ellipse cx="201.21" cy="20.71" rx="5.57" ry="5.02" fill="#ffdc6a" />
      <path
        d="M172 54.57a4 4 0 0 1-4.18-3.8V19.42H165v31.35c0 3.45 3.11 6.26 7 6.26h51.52v-2.46z"
        fill="#d0d7e7"
      />
      <path
        class="comp-cls-11"
        d="M356.49 10.45H38c-2.56 0-4.62.69-4.65 1.52v8.16h327.92V12c-.09-.87-2.2-1.54-4.78-1.55z"
      />
      <rect
        class="comp-cls-1"
        x="30.91"
        y="5.61"
        width="332.78"
        height="232.34"
        rx="12"
      />
    </g>
  </g>
</svg>
