<svg
  id="folders"
  class="folders"
  xmlns="http://www.w3.org/2000/svg"
  viewBox="0 0 376.66 249.07"
>
  <defs id="folders">
    <style id="folders">
      .fol-cls-1 {
        fill: none;
      }
      .fol-cls-2 {
        fill: #fff;
      }
      .fol-cls-6 {
        fill: #b2daad;
      }
      .fol-cls-7 {
        fill: #f7f5b8;
      }
      .fol-cls-8 {
        fill: #8b91c8;
      }
      .fol-cls-9 {
        fill: #f8b2b3;
      }
      .fol-cls-10 {
        fill: #bdbfbf;
      }
      .fol-cls-17 {
        fill: #402c1f;
      }
      .fol-cls-24 {
        fill: #9c6b56;
      }
      .fol-cls-26 {
        fill: #925847;
      }
      .fol-cls-30 {
        fill: #fed8ad;
      }
      .fol-cls-32 {
        fill: #e3bf9d;
      }
    </style>
    <clipPath id="fol-clip-path">
      <path
        class="fol-cls-1"
        d="M31.62-255.57h309.6a6.49 6.49 0 0 1 6.49 6.49v208.33a6.21 6.21 0 0 1-6.21 6.21H31.34a6.21 6.21 0 0 1-6.21-6.21v-208.32a6.49 6.49 0 0 1 6.49-6.5z"
      />
    </clipPath>
    <clipPath id="fol-clip-path-2">
      <circle class="fol-cls-1" cx="190.82" cy="73.55" r="68.67" />
    </clipPath>
    <clipPath id="fol-clip-path-3">
      <rect
        class="fol-cls-1"
        x="176.41"
        y="80.62"
        width="27.17"
        height="32.61"
        rx="5.16"
      />
    </clipPath>
    <clipPath id="fol-clip-path-4">
      <circle class="fol-cls-1" cx="189.99" cy="58.54" r="32.3" />
    </clipPath>
    <clipPath id="fol-clip-path-5">
      <circle class="fol-cls-1" cx="23.97" cy="233.08" r="14.27" />
    </clipPath>
    <clipPath id="fol-clip-path-6">
      <rect
        class="fol-cls-1"
        x="21.14"
        y="233.78"
        width="5.64"
        height="6.78"
        rx="2.6"
      />
    </clipPath>
    <clipPath id="fol-clip-path-7">
      <circle class="fol-cls-1" cx="23.97" cy="229.19" r="6.71" />
    </clipPath>
    <clipPath id="fol-clip-path-8">
      <circle class="fol-cls-1" cx="57.55" cy="233.61" r="14.8" />
    </clipPath>
    <clipPath id="fol-clip-path-9">
      <rect
        class="fol-cls-1"
        x="54.62"
        y="235.78"
        width="5.86"
        height="7.03"
        rx="1.53"
      />
    </clipPath>
    <clipPath id="fol-clip-path-10">
      <circle class="fol-cls-1" cx="57.55" cy="231.02" r="6.96" />
    </clipPath>
    <clipPath id="fol-clip-path-11">
      <circle class="fol-cls-1" cx="334.87" cy="233.61" r="14.8" />
    </clipPath>
    <clipPath id="fol-clip-path-12">
      <rect
        class="fol-cls-1"
        x="331.94"
        y="236.06"
        width="5.86"
        height="7.03"
        rx="2.69"
      />
    </clipPath>
    <clipPath id="fol-clip-path-13">
      <path
        class="fol-cls-1"
        d="M340.56 231.85c0 4.41-2.55 8-5.69 8s-5.69-3.57-5.69-8c0-6.77 2.55-7.52 5.69-7.52s5.69.75 5.69 7.52z"
      />
    </clipPath>
    <clipPath id="fol-clip-path-14">
      <circle class="fol-cls-1" cx="238.1" cy="233.61" r="14.8" />
    </clipPath>
    <clipPath id="fol-clip-path-15">
      <rect
        class="fol-cls-1"
        x="235.17"
        y="235.33"
        width="5.86"
        height="7.03"
        rx="2.69"
      />
    </clipPath>
    <clipPath id="fol-clip-path-16">
      <ellipse class="fol-cls-1" cx="238.1" cy="230.57" rx="6.14" ry="6.96" />
    </clipPath>
  </defs>
  <g id="circle_backgrounds">
    <circle class="fol-cls-2" cx="191.46" cy="74.19" r="68.03" />
    <circle class="fol-cls-2" cx="23.97" cy="232.9" r="14.17" />
    <circle class="fol-cls-2" cx="57.55" cy="233.61" r="14.17" />
    <circle class="fol-cls-2" cx="238.1" cy="233.43" r="14.17" />
    <circle class="fol-cls-2" cx="334.87" cy="233.25" r="14.8" />
  </g>
  <g id="Layer_5" data-name="Layer 5">
    <rect class="fol-cls-6" y="158.51" width="83.58" height="50.29" rx="5.53" />
    <rect class="fol-cls-6" y="152.72" width="18.72" height="18.72" rx="3.58" />
    <rect class="fol-cls-7" y="158.51" width="83.58" height="50.29" rx="5.53" />
    <rect class="fol-cls-7" y="152.72" width="18.72" height="18.72" rx="3.58" />
    <rect
      class="fol-cls-8"
      x="101.84"
      y="159.35"
      width="83.58"
      height="50.29"
      rx="5.53"
    />
    <rect
      class="fol-cls-8"
      x="121.9"
      y="153.55"
      width="18.72"
      height="18.72"
      rx="3.58"
    />
    <rect
      class="fol-cls-9"
      x="196.31"
      y="160.5"
      width="83.58"
      height="50.29"
      rx="5.53"
    />
    <rect
      class="fol-cls-9"
      x="236.86"
      y="154.7"
      width="18.72"
      height="18.72"
      rx="3.58"
    />
    <rect
      class="fol-cls-6"
      x="293.08"
      y="161.65"
      width="83.58"
      height="50.29"
      rx="5.53"
    />
    <rect
      class="fol-cls-6"
      x="357.94"
      y="155.85"
      width="18.72"
      height="18.72"
      rx="3.58"
    />
    <rect
      class="fol-cls-10"
      x="325.96"
      y="180.76"
      width="17.82"
      height="16.05"
      rx="4.17"
    />
    <path
      d="M329.53 178.65v-1.13a5.34 5.34 0 1 1 10.68 0v1.13"
      stroke-width="2.96"
      stroke="#bdbfbf"
      stroke-linecap="round"
      stroke-miterlimit="10"
      fill="none"
    />
    <circle cx="334.87" cy="186.63" r="2.3" fill="#414042" />
    <path
      stroke-width="2.96"
      stroke-linecap="round"
      stroke-miterlimit="10"
      stroke="#353434"
      fill="none"
      d="M334.87 187.51v4.43"
    />
    <g clip-path="url(#fol-clip-path-2)">
      <circle cx="190.61" cy="133.28" r="36.07" fill="#353434" />
      <rect
        x="176.41"
        y="80.62"
        width="27.17"
        height="32.61"
        rx="5.16"
        fill="#dca87d"
      />
      <circle class="fol-cls-17" cx="189.99" cy="55.91" r="32.3" />
      <g clip-path="url(#fol-clip-path-3)">
        <ellipse cx="189.99" cy="68.45" rx="26.41" ry="31.2" fill="#cd8f68" />
      </g>
      <ellipse cx="189.99" cy="65.82" rx="26.41" ry="31.2" fill="#dba67e" />
      <g clip-path="url(#fol-clip-path-4)">
        <path
          class="fol-cls-17"
          d="M190 55.91c7.5-7.5 19.72-5.32 25 0 0-10-5.1-29.67-25-29.67s-26.41 15.79-26.41 29c6.16-6.17 20.04-5.53 26.41.67z"
        />
      </g>
    </g>
    <circle
      cx="190.82"
      cy="73.55"
      r="68.03"
      stroke-width="10.43"
      stroke="#475ca9"
      stroke-miterlimit="10"
      fill="none"
    />
    <g clip-path="url(#fol-clip-path-5)">
      <circle class="fol-cls-10" cx="23.97" cy="243.83" r="7.49" />
      <rect
        class="fol-cls-17"
        x="26.79"
        y="227.5"
        width="3.89"
        height="7.86"
        rx="1.79"
      />
      <rect
        class="fol-cls-17"
        x="17.49"
        y="227.5"
        width="3.89"
        height="7.86"
        rx="1.79"
      />
      <rect
        class="fol-cls-24"
        x="21.14"
        y="233.78"
        width="5.64"
        height="6.78"
        rx="2.6"
      />
      <circle class="fol-cls-17" cx="23.97" cy="228.64" r="6.71" />
      <g clip-path="url(#fol-clip-path-6)">
        <ellipse class="fol-cls-26" cx="23.97" cy="231.25" rx="5.49" ry="6.48" />
      </g>
      <ellipse class="fol-cls-24" cx="23.97" cy="230.7" rx="5.49" ry="6.48" />
      <g clip-path="url(#fol-clip-path-7)">
        <circle class="fol-cls-17" cx="23.97" cy="217.57" r="13.67" />
      </g>
    </g>
    <circle
      cx="23.94"
      cy="233.08"
      r="14.17"
      stroke-width="2.17"
      stroke="#475ca9"
      stroke-miterlimit="10"
      fill="none"
    />
    <g clip-path="url(#fol-clip-path-8)">
      <circle class="fol-cls-9" cx="57.59" cy="246.49" r="7.77" />
      <rect
        class="fol-cls-30"
        x="54.62"
        y="235.78"
        width="5.86"
        height="7.03"
        rx="1.53"
      />
      <circle class="fol-cls-17" cx="57.55" cy="230.46" r="6.96" />
      <g clip-path="url(#fol-clip-path-9)">
        <ellipse class="fol-cls-32" cx="57.55" cy="233.16" rx="5.69" ry="6.73" />
      </g>
      <ellipse class="fol-cls-30" cx="57.55" cy="232.59" rx="5.69" ry="6.73" />
      <g clip-path="url(#fol-clip-path-10)">
        <circle class="fol-cls-17" cx="57.59" cy="226.19" r="4.84" />
      </g>
    </g>
    <circle
      cx="57.55"
      cy="233.61"
      r="14.17"
      stroke-width="2.17"
      stroke="#475ca9"
      stroke-miterlimit="10"
      fill="none"
    />
    <g clip-path="url(#fol-clip-path-11)">
      <circle class="fol-cls-2" cx="334.87" cy="246.49" r="7.77" />
      <rect
        class="fol-cls-24"
        x="331.94"
        y="236.06"
        width="5.86"
        height="7.03"
        rx="2.69"
      />
      <g clip-path="url(#fol-clip-path-12)">
        <ellipse class="fol-cls-26" cx="334.87" cy="233.43" rx="5.69" ry="6.73" />
      </g>
      <ellipse class="fol-cls-24" cx="334.87" cy="232.87" rx="5.69" ry="6.73" />
      <g clip-path="url(#fol-clip-path-13)">
        <path
          class="fol-cls-17"
          d="M346.46 220.82a12.49 12.49 0 0 1-5.9 11 9 9 0 0 0-5.69-1.84 8.34 8.34 0 0 0-5.69 1.84 12.78 12.78 0 0 1-5.9-11c0-7.83 5.19-14.18 11.59-14.18s11.59 6.36 11.59 14.18z"
        />
      </g>
    </g>
    <circle
      cx="334.87"
      cy="233.61"
      r="14.17"
      stroke-width="2.17"
      stroke="#475ca9"
      stroke-miterlimit="10"
      fill="none"
    />
    <g clip-path="url(#fol-clip-path-14)">
      <circle class="fol-cls-6" cx="238.1" cy="246.49" r="7.77" />
      <rect
        class="fol-cls-30"
        x="235.17"
        y="235.33"
        width="5.86"
        height="7.03"
        rx="2.69"
      />
      <rect
        class="fol-cls-17"
        x="231.29"
        y="222.34"
        width="13.61"
        height="15.08"
        rx="6.26"
      />
      <g clip-path="url(#fol-clip-path-15)">
        <ellipse class="fol-cls-32" cx="238.1" cy="232.71" rx="5.69" ry="6.73" />
      </g>
      <ellipse class="fol-cls-30" cx="238.1" cy="232.14" rx="5.69" ry="6.73" />
      <g clip-path="url(#fol-clip-path-16)">
        <circle class="fol-cls-17" cx="238.1" cy="214.96" r="17.12" />
      </g>
    </g>
    <circle
      cx="238.1"
      cy="233.61"
      r="14.17"
      stroke-width="2.17"
      stroke="#475ca9"
      stroke-miterlimit="10"
      fill="none"
    />
  </g>
</svg>
