<svg
  id="network"
  class="network"
  xmlns="http://www.w3.org/2000/svg"
  viewBox="0 0 388.94 200.53"
>
  <defs>
    <style>
      .cls-1,
      .cls-61,
      .cls-84 {
        fill: none;
      }
      .cls-2 {
        fill: #fff;
      }
      .cls-4 {
        fill: #bdbfbf;
      }
      .cls-5 {
        fill: #402c1f;
      }
      .cls-6 {
        fill: #9c6b56;
      }
      .cls-8 {
        fill: #925847;
      }
      .cls-61 {
        stroke-miterlimit: 10;
      }
      .cls-13 {
        fill: #cb926b;
      }
      .cls-15 {
        fill: #c18054;
      }
      .cls-19 {
        fill: #b2daad;
      }
      .cls-20 {
        fill: #fed8ad;
      }
      .cls-22 {
        fill: #e3bf9d;
      }
      .cls-26 {
        fill: #353434;
      }
      .cls-31 {
        fill: #f8b2b3;
      }
      .cls-46 {
        fill: #dcc7b9;
      }
      .cls-52 {
        fill: #dca87d;
      }
      .cls-54 {
        fill: #cd8f68;
      }
      .cls-55 {
        fill: #dba67e;
      }
      .cls-61 {
        stroke: #73b1e1;
        stroke-width: 2.2px;
      }
      .cls-79 {
        fill: #e8ba8f;
      }
      .cls-84 {
        stroke: #b2daad;
        stroke-linecap: round;
        stroke-linejoin: round;
        stroke-width: 4.26px;
      }
    </style>
    <clipPath id="clip-path">
      <circle class="cls-1" cx="194.48" cy="100.46" r="23.35" />
    </clipPath>
    <clipPath id="clip-path-2">
      <rect
        class="cls-1"
        x="189.86"
        y="101.6"
        width="9.24"
        height="11.09"
        rx="4.34"
      />
    </clipPath>
    <clipPath id="clip-path-3">
      <circle class="cls-1" cx="194.48" cy="94.09" r="10.99" />
    </clipPath>
    <clipPath id="clip-path-4">
      <circle class="cls-1" cx="253.28" cy="159.27" r="14.89" />
    </clipPath>
    <clipPath id="clip-path-5">
      <rect
        class="cls-1"
        x="250.33"
        y="161.27"
        width="5.89"
        height="7.07"
        rx="2.77"
      />
    </clipPath>
    <clipPath id="clip-path-6">
      <circle class="cls-1" cx="253.28" cy="156.48" r="7.01" />
    </clipPath>
    <clipPath id="clip-path-7">
      <circle class="cls-1" cx="111.28" cy="100.46" r="15.39" />
    </clipPath>
    <clipPath id="clip-path-8">
      <rect
        class="cls-1"
        x="108.23"
        y="102.24"
        width="6.09"
        height="7.31"
        rx="2.86"
      />
    </clipPath>
    <clipPath id="clip-path-9">
      <ellipse class="cls-1" cx="111.28" cy="97.29" rx="6.39" ry="7.24" />
    </clipPath>
    <clipPath id="clip-path-10">
      <circle class="cls-1" cx="194.03" cy="18.68" r="13.5" />
    </clipPath>
    <clipPath id="clip-path-11">
      <rect class="cls-1" x="191.53" y="19.18" width="5" height="6" rx="2.5" />
    </clipPath>
    <clipPath id="clip-path-12">
      <circle class="cls-1" cx="194.03" cy="14.68" r="6.5" />
    </clipPath>
    <clipPath id="clip-path-13">
      <circle class="cls-1" cx="277.64" cy="100.46" r="15.09" />
    </clipPath>
    <clipPath id="clip-path-14">
      <rect
        class="cls-1"
        x="274.66"
        y="102.67"
        width="5.97"
        height="7.17"
        rx="2.8"
      />
    </clipPath>
    <clipPath id="clip-path-15">
      <circle class="cls-1" cx="277.64" cy="97.81" r="7.1" />
    </clipPath>
    <clipPath id="clip-path-16">
      <circle class="cls-1" cx="135.64" cy="159.27" r="15.78" />
    </clipPath>
    <clipPath id="clip-path-17">
      <rect
        class="cls-1"
        x="132.52"
        y="160.74"
        width="6.24"
        height="7.5"
        rx="2.93"
      />
    </clipPath>
    <clipPath id="clip-path-18">
      <circle class="cls-1" cx="135.64" cy="155.66" r="7.43" />
    </clipPath>
    <clipPath id="clip-path-19">
      <circle class="cls-1" cx="135.63" cy="41.64" r="16.03" />
    </clipPath>
    <clipPath id="clip-path-20">
      <rect
        class="cls-1"
        x="132.46"
        y="43.13"
        width="6.34"
        height="7.61"
        rx="2.98"
      />
    </clipPath>
    <clipPath id="clip-path-21">
      <circle class="cls-1" cx="135.63" cy="37.97" r="7.54" />
    </clipPath>
    <clipPath id="clip-path-22">
      <circle class="cls-1" cx="253.28" cy="41.64" r="15.09" />
    </clipPath>
    <clipPath id="clip-path-23">
      <rect
        class="cls-1"
        x="250.29"
        y="41.7"
        width="5.97"
        height="7.17"
        rx="2.8"
      />
    </clipPath>
    <clipPath id="clip-path-24">
      <circle class="cls-1" cx="253.28" cy="36.84" r="7.1" />
    </clipPath>
    <clipPath id="clip-path-25">
      <circle class="cls-1" cx="194.46" cy="183.64" r="16.06" />
    </clipPath>
    <clipPath id="clip-path-26">
      <rect
        class="cls-1"
        x="191.29"
        y="185.29"
        width="6.35"
        height="7.63"
        rx="2.98"
      />
    </clipPath>
    <clipPath id="clip-path-27">
      <circle class="cls-1" cx="194.46" cy="180.12" r="7.55" />
    </clipPath>
    <clipPath id="clip-path-28">
      <circle class="cls-1" cx="324.91" cy="154.49" r="11" />
    </clipPath>
    <clipPath id="clip-path-29">
      <rect
        class="cls-1"
        x="322.73"
        y="155.81"
        width="4.35"
        height="5.22"
        rx="2.04"
      />
    </clipPath>
    <clipPath id="clip-path-30">
      <circle class="cls-1" cx="324.91" cy="152.27" r="5.17" />
    </clipPath>
    <clipPath id="clip-path-31">
      <circle class="cls-1" cx="64.01" cy="154.49" r="11" />
    </clipPath>
    <clipPath id="clip-path-32">
      <rect
        class="cls-1"
        x="61.83"
        y="156.3"
        width="4.35"
        height="5.22"
        rx="2.04"
      />
    </clipPath>
    <clipPath id="clip-path-33">
      <path
        class="cls-1"
        d="M68.24 153.18c0 3.27-1.9 5.93-4.23 5.93s-4.23-2.66-4.23-5.93c0-5 1.89-5.59 4.23-5.59s4.23.55 4.23 5.59z"
      />
    </clipPath>
    <clipPath id="clip-path-34">
      <circle class="cls-1" cx="64.01" cy="46.42" r="11" />
    </clipPath>
    <clipPath id="clip-path-35">
      <rect
        class="cls-1"
        x="61.83"
        y="46.62"
        width="4.35"
        height="5.22"
        rx="2.04"
      />
    </clipPath>
    <clipPath id="clip-path-36">
      <circle class="cls-1" cx="64.01" cy="43.09" r="5.17" />
    </clipPath>
    <clipPath id="clip-path-37">
      <circle class="cls-1" cx="324.91" cy="46.42" r="11" />
    </clipPath>
    <clipPath id="clip-path-38">
      <rect
        class="cls-1"
        x="322.6"
        y="47.56"
        width="4.35"
        height="5.22"
        rx="2.04"
      />
    </clipPath>
    <clipPath id="clip-path-39">
      <circle class="cls-1" cx="324.77" cy="44.02" r="5.17" />
    </clipPath>
    <clipPath id="clip-path-40">
      <circle class="cls-1" cx="10.01" cy="100.46" r="9.06" />
    </clipPath>
    <clipPath id="clip-path-41">
      <rect
        class="cls-1"
        x="8.22"
        y="100.46"
        width="3.58"
        height="4.3"
        rx="1.68"
      />
    </clipPath>
    <clipPath id="clip-path-42">
      <circle class="cls-1" cx="10.01" cy="97.54" r="4.26" />
    </clipPath>
    <clipPath id="clip-path-43">
      <circle class="cls-1" cx="378.91" cy="100.46" r="9.06" />
    </clipPath>
    <clipPath id="clip-path-44">
      <rect
        class="cls-1"
        x="377.12"
        y="100.9"
        width="3.58"
        height="4.3"
        rx="1.68"
      />
    </clipPath>
    <clipPath id="clip-path-45">
      <circle class="cls-1" cx="378.91" cy="97.98" r="4.26" />
    </clipPath>
  </defs>
  <g id="circle_backgrounds">
    <circle class="cls-2" cx="194.2" cy="100.6" r="23.6" />
    <circle class="cls-2" cx="194.44" cy="17.18" r="15.59" />
    <circle class="cls-2" cx="253.28" cy="41.64" r="15.59" />
    <circle class="cls-2" cx="277.64" cy="100.6" r="15.59" />
    <circle class="cls-2" cx="253.28" cy="159.27" r="15.59" />
    <circle class="cls-2" cx="194.44" cy="183.64" r="15.59" />
    <circle class="cls-2" cx="135.66" cy="159.26" r="15.59" />
    <circle class="cls-2" cx="111.28" cy="100.6" r="15.59" />
    <circle class="cls-2" cx="135.66" cy="41.64" r="15.59" />
    <circle class="cls-2" cx="64.01" cy="46.42" r="11.34" />
    <circle class="cls-2" cx="64.01" cy="154.49" r="11.34" />
    <circle class="cls-2" cx="324.91" cy="154.49" r="11.34" />
    <circle class="cls-2" cx="324.91" cy="46.42" r="11.34" />
    <circle class="cls-2" cx="378.91" cy="100.46" r="9.21" />
    <circle class="cls-2" cx="10.01" cy="100.46" r="9.21" />
  </g>
  <g id="Layer_4" data-name="Layer 4">
    <g clip-path="url(#clip-path)">
      <circle class="cls-4" cx="194.48" cy="118.05" r="12.27" />
      <rect
        class="cls-5"
        x="199.1"
        y="91.31"
        width="6.37"
        height="12.87"
        rx="2.99"
      />
      <rect
        class="cls-5"
        x="183.87"
        y="91.31"
        width="6.37"
        height="12.87"
        rx="2.99"
      />
      <rect
        class="cls-6"
        x="189.86"
        y="101.6"
        width="9.24"
        height="11.09"
        rx="4.34"
      />
      <circle class="cls-5" cx="194.48" cy="93.2" r="10.99" />
      <g clip-path="url(#clip-path-2)">
        <ellipse class="cls-8" cx="194.48" cy="97.46" rx="8.98" ry="10.61" />
      </g>
      <ellipse class="cls-6" cx="194.48" cy="96.56" rx="8.98" ry="10.61" />
      <g clip-path="url(#clip-path-3)">
        <circle class="cls-5" cx="194.48" cy="75.08" r="22.37" />
      </g>
    </g>
    <circle
      cx="194.44"
      cy="100.46"
      r="23.35"
      stroke-width="3.58"
      stroke-miterlimit="10"
      stroke="#475ca9"
      fill="none"
    />
    <g clip-path="url(#clip-path-4)">
      <circle cx="253.28" cy="172.23" r="7.82" fill="#8b91c8" />
      <rect
        class="cls-13"
        x="250.33"
        y="161.27"
        width="5.89"
        height="7.07"
        rx="2.77"
      />
      <circle class="cls-5" cx="253.28" cy="155.91" r="7.01" />
      <g clip-path="url(#clip-path-5)">
        <ellipse class="cls-15" cx="253.28" cy="158.63" rx="5.73" ry="6.77" />
      </g>
      <ellipse class="cls-13" cx="253.28" cy="158.06" rx="5.73" ry="6.77" />
      <g clip-path="url(#clip-path-6)">
        <circle class="cls-5" cx="250.65" cy="152.69" r="5.94" />
      </g>
      <path
        class="cls-5"
        d="M252.85 155.91a5.34 5.34 0 0 1 6.16 2.15 10.09 10.09 0 0 0 .45-2.82c0-1.47-2-4-3.23-4s-3.38 1.28-3.38 4.67z"
      />
    </g>
    <circle
      cx="253.28"
      cy="159.27"
      r="15.59"
      stroke-width="2.39"
      stroke-miterlimit="10"
      stroke="#475ca9"
      fill="none"
    />
    <g clip-path="url(#clip-path-7)">
      <circle class="cls-19" cx="111.28" cy="113.84" r="8.08" />
      <rect
        class="cls-20"
        x="108.23"
        y="102.24"
        width="6.09"
        height="7.31"
        rx="2.86"
      />
      <rect
        class="cls-5"
        x="104.2"
        y="88.73"
        width="14.15"
        height="15.69"
        rx="6.64"
      />
      <g clip-path="url(#clip-path-8)">
        <ellipse class="cls-22" cx="111.28" cy="99.51" rx="5.92" ry="6.99" />
      </g>
      <ellipse class="cls-20" cx="111.28" cy="98.93" rx="5.92" ry="6.99" />
      <g clip-path="url(#clip-path-9)">
        <circle class="cls-5" cx="111.28" cy="81.06" r="17.8" />
      </g>
    </g>
    <circle
      cx="111.28"
      cy="100.46"
      r="15.59"
      stroke-width="2.39"
      stroke-miterlimit="10"
      stroke="#475ca9"
      fill="none"
    />
    <g clip-path="url(#clip-path-10)">
      <circle class="cls-26" cx="194.53" cy="29.18" r="7" />
      <rect class="cls-20" x="191.53" y="19.18" width="5" height="6" rx="2.5" />
      <circle class="cls-5" cx="194.03" cy="14.68" r="6.5" />
      <g clip-path="url(#clip-path-11)">
        <ellipse class="cls-22" cx="194.03" cy="16.18" rx="5.5" ry="6" />
      </g>
      <ellipse class="cls-20" cx="194.03" cy="16.18" rx="5.5" ry="6" />
      <g clip-path="url(#clip-path-12)">
        <circle class="cls-5" cx="192.03" cy="11.68" r="5.5" />
        <circle class="cls-5" cx="200.53" cy="12.18" r="4" />
      </g>
      <ellipse class="cls-5" cx="194.53" cy="7.68" rx="4" ry="2.5" />
    </g>
    <circle
      cx="194.53"
      cy="17.18"
      r="15.59"
      stroke-width="2.39"
      stroke-miterlimit="10"
      stroke="#475ca9"
      fill="none"
    />
    <g clip-path="url(#clip-path-13)">
      <circle class="cls-31" cx="277.69" cy="113.58" r="7.93" />
      <rect
        class="cls-20"
        x="274.66"
        y="102.67"
        width="5.97"
        height="7.17"
        rx="2.8"
      />
      <circle class="cls-5" cx="277.64" cy="97.23" r="7.1" />
      <g clip-path="url(#clip-path-14)">
        <ellipse class="cls-22" cx="277.64" cy="99.99" rx="5.81" ry="6.86" />
      </g>
      <ellipse class="cls-20" cx="277.64" cy="99.41" rx="5.81" ry="6.86" />
      <g clip-path="url(#clip-path-15)">
        <circle class="cls-5" cx="277.69" cy="92.88" r="4.93" />
      </g>
    </g>
    <circle
      cx="277.64"
      cy="100.46"
      r="15.59"
      stroke-width="2.39"
      stroke-miterlimit="10"
      stroke="#475ca9"
      fill="none"
    />
    <g clip-path="url(#clip-path-16)">
      <rect
        class="cls-5"
        x="138.76"
        y="153.79"
        width="4.3"
        height="16.92"
        rx="2.02"
      />
      <rect
        class="cls-5"
        x="128.47"
        y="153.79"
        width="4.3"
        height="16.92"
        rx="2.02"
      />
      <circle class="cls-19" cx="135.64" cy="173" r="8.29" />
      <rect
        class="cls-20"
        x="132.52"
        y="160.74"
        width="6.24"
        height="7.5"
        rx="2.93"
      />
      <circle class="cls-5" cx="135.64" cy="155.06" r="7.43" />
      <g clip-path="url(#clip-path-17)">
        <ellipse class="cls-22" cx="135.64" cy="157.94" rx="6.07" ry="7.17" />
      </g>
      <ellipse class="cls-20" cx="135.64" cy="157.34" rx="6.07" ry="7.17" />
      <g clip-path="url(#clip-path-18)">
        <circle class="cls-5" cx="132.86" cy="151.64" r="6.29" />
        <circle class="cls-5" cx="142.33" cy="152.61" r="4.37" />
      </g>
    </g>
    <circle
      cx="135.64"
      cy="159.27"
      r="15.59"
      stroke-width="2.39"
      stroke-miterlimit="10"
      stroke="#475ca9"
      fill="none"
    />
    <g clip-path="url(#clip-path-19)">
      <circle cx="135.63" cy="55.58" r="8.42" fill="#73b1e1" />
      <rect
        class="cls-20"
        x="132.46"
        y="43.13"
        width="6.34"
        height="7.61"
        rx="2.98"
      />
      <circle class="cls-5" cx="135.63" cy="37.36" r="7.54" />
      <g clip-path="url(#clip-path-20)">
        <ellipse class="cls-22" cx="135.63" cy="40.29" rx="6.17" ry="7.29" />
      </g>
      <ellipse class="cls-20" cx="135.63" cy="39.67" rx="6.17" ry="7.29" />
      <g clip-path="url(#clip-path-21)">
        <circle class="cls-5" cx="132.8" cy="33.89" r="6.39" />
        <circle class="cls-5" cx="142.42" cy="34.87" r="4.44" />
      </g>
    </g>
    <circle
      cx="135.66"
      cy="41.64"
      r="15.59"
      stroke-width="2.39"
      stroke-miterlimit="10"
      stroke="#475ca9"
      fill="none"
    />
    <g clip-path="url(#clip-path-22)">
      <circle cx="253.28" cy="53.01" r="7.93" fill="#d9d9d8" />
      <rect
        class="cls-20"
        x="250.29"
        y="41.7"
        width="5.97"
        height="7.17"
        rx="2.8"
      />
      <circle class="cls-46" cx="253.28" cy="36.84" r="7.1" />
      <g clip-path="url(#clip-path-23)">
        <ellipse class="cls-22" cx="253.28" cy="39.02" rx="5.81" ry="6.86" />
      </g>
      <ellipse class="cls-20" cx="253.28" cy="38.44" rx="5.81" ry="6.86" />
      <g clip-path="url(#clip-path-24)">
        <circle class="cls-46" cx="247.47" cy="30.66" r="6.86" />
        <circle class="cls-46" cx="259.1" cy="30.66" r="6.86" />
      </g>
    </g>
    <circle
      cx="253.28"
      cy="41.64"
      r="15.59"
      stroke-width="2.39"
      stroke-miterlimit="10"
      stroke="#475ca9"
      fill="none"
    />
    <g clip-path="url(#clip-path-25)">
      <rect
        class="cls-5"
        x="197.64"
        y="178.21"
        width="4.38"
        height="17.21"
        rx="2.06"
      />
      <circle cx="194.61" cy="197.6" r="8.43" fill="#f7f5b8" />
      <rect
        class="cls-52"
        x="191.29"
        y="185.29"
        width="6.35"
        height="7.63"
        rx="2.98"
      />
      <circle class="cls-5" cx="194.46" cy="179.51" r="7.55" />
      <g clip-path="url(#clip-path-26)">
        <ellipse class="cls-54" cx="194.46" cy="182.44" rx="6.18" ry="7.3" />
      </g>
      <ellipse class="cls-55" cx="194.46" cy="181.82" rx="6.18" ry="7.3" />
      <g clip-path="url(#clip-path-27)">
        <circle class="cls-5" cx="194.46" cy="170.82" r="11.31" />
      </g>
    </g>
    <circle
      cx="194.46"
      cy="183.64"
      r="15.59"
      stroke-width="2.39"
      stroke-miterlimit="10"
      stroke="#475ca9"
      fill="none"
    />
    <g clip-path="url(#clip-path-28)">
      <circle class="cls-4" cx="324.91" cy="164.06" r="5.78" />
      <rect
        class="cls-20"
        x="322.73"
        y="155.81"
        width="4.35"
        height="5.22"
        rx="2.04"
      />
      <g clip-path="url(#clip-path-29)">
        <ellipse class="cls-22" cx="324.91" cy="153.86" rx="4.23" ry="5" />
      </g>
      <ellipse class="cls-20" cx="324.91" cy="153.44" rx="4.23" ry="5" />
      <g clip-path="url(#clip-path-30)">
        <rect
          class="cls-46"
          x="328.59"
          y="151.81"
          width="1.1"
          height="2.08"
          rx=".51"
        />
        <rect
          class="cls-46"
          x="320.13"
          y="151.81"
          width="1.1"
          height="2.08"
          rx=".51"
        />
      </g>
    </g>
    <circle class="cls-61" cx="324.91" cy="154.49" r="11.34" />
    <g clip-path="url(#clip-path-31)">
      <circle cx="64.01" cy="164.06" r="5.78" fill="#e4e4e4" />
      <rect
        class="cls-6"
        x="61.83"
        y="156.3"
        width="4.35"
        height="5.22"
        rx="2.04"
      />
      <g clip-path="url(#clip-path-32)">
        <ellipse class="cls-8" cx="64.01" cy="154.36" rx="4.23" ry="5" />
      </g>
      <ellipse class="cls-6" cx="64.01" cy="153.93" rx="4.23" ry="5" />
      <g clip-path="url(#clip-path-33)">
        <path
          class="cls-5"
          d="M72.62 145a9.29 9.29 0 0 1-4.38 8.2 6.73 6.73 0 0 0-4.24-1.39 6.18 6.18 0 0 0-4.23 1.37 9.53 9.53 0 0 1-4.39-8.2c0-5.82 3.86-10.54 8.62-10.54s8.62 4.72 8.62 10.56z"
        />
      </g>
    </g>
    <circle class="cls-61" cx="64.01" cy="154.49" r="11.34" />
    <g clip-path="url(#clip-path-34)">
      <circle cx="64.01" cy="54.71" r="5.78" fill="#3bb54a" />
      <rect
        class="cls-13"
        x="61.83"
        y="46.62"
        width="4.35"
        height="5.22"
        rx="2.04"
      />
      <circle class="cls-5" cx="64.01" cy="42.66" r="5.17" />
      <g clip-path="url(#clip-path-35)">
        <ellipse class="cls-15" cx="64.01" cy="44.67" rx="4.23" ry="5" />
      </g>
      <ellipse class="cls-13" cx="64.01" cy="44.25" rx="4.23" ry="5" />
      <g clip-path="url(#clip-path-36)">
        <circle class="cls-5" cx="62.07" cy="40.28" r="4.38" />
      </g>
      <path
        class="cls-5"
        d="M63.69 42.66a3.93 3.93 0 0 1 4.55 1.59 7.32 7.32 0 0 0 .34-2.08c0-1.09-1.49-2.92-2.4-2.92s-2.49.91-2.49 3.41z"
      />
    </g>
    <circle class="cls-61" cx="64.01" cy="46.42" r="11.34" />
    <g clip-path="url(#clip-path-37)">
      <circle class="cls-26" cx="324.87" cy="55.99" r="5.78" />
      <rect
        class="cls-52"
        x="322.6"
        y="47.56"
        width="4.35"
        height="5.22"
        rx="2.04"
      />
      <circle class="cls-5" cx="324.77" cy="43.6" r="5.17" />
      <g clip-path="url(#clip-path-38)">
        <ellipse class="cls-54" cx="324.77" cy="45.61" rx="4.23" ry="5" />
      </g>
      <ellipse class="cls-55" cx="324.77" cy="45.19" rx="4.23" ry="5" />
      <g clip-path="url(#clip-path-39)">
        <path
          class="cls-5"
          d="M324.77 43.6a3 3 0 0 1 4 0c0-1.6-.81-4.75-4-4.75s-4.23 2.52-4.23 4.64a3.37 3.37 0 0 1 4.23.11z"
        />
      </g>
    </g>
    <circle class="cls-61" cx="324.91" cy="46.42" r="11.34" />
    <g clip-path="url(#clip-path-40)">
      <circle class="cls-31" cx="10.01" cy="107.28" r="4.76" />
      <rect
        class="cls-20"
        x="8.22"
        y="100.46"
        width="3.58"
        height="4.3"
        rx="1.68"
      />
      <circle class="cls-5" cx="10.01" cy="97.2" r="4.26" />
      <g clip-path="url(#clip-path-41)">
        <ellipse class="cls-22" cx="10.01" cy="98.85" rx="3.48" ry="4.11" />
      </g>
      <ellipse class="cls-20" cx="10.01" cy="98.5" rx="3.48" ry="4.11" />
      <g clip-path="url(#clip-path-42)">
        <circle class="cls-5" cx="8.42" cy="95.23" r="3.61" />
        <circle class="cls-5" cx="13.85" cy="95.79" r="2.51" />
      </g>
    </g>
    <circle
      cx="10.01"
      cy="100.46"
      r="9.21"
      stroke-width="1.41"
      stroke="#8a91c7"
      stroke-miterlimit="10"
      fill="none"
    />
    <g clip-path="url(#clip-path-43)">
      <circle cx="378.91" cy="107.28" r="4.76" fill="#475ca9" />
      <rect
        class="cls-5"
        x="380.7"
        y="96.91"
        width="2.47"
        height="4.99"
        rx="1.16"
      />
      <rect
        class="cls-5"
        x="374.8"
        y="96.91"
        width="2.47"
        height="4.99"
        rx="1.16"
      />
      <rect
        class="cls-79"
        x="377.12"
        y="100.9"
        width="3.58"
        height="4.3"
        rx="1.68"
      />
      <circle class="cls-5" cx="378.91" cy="97.64" r="4.26" />
      <g clip-path="url(#clip-path-44)">
        <ellipse cx="378.91" cy="99.29" rx="3.48" ry="4.11" fill="#e09e71" />
      </g>
      <ellipse class="cls-79" cx="378.91" cy="98.94" rx="3.48" ry="4.11" />
      <g clip-path="url(#clip-path-45)">
        <circle class="cls-5" cx="377.31" cy="95.68" r="3.61" />
        <circle class="cls-5" cx="382.75" cy="96.23" r="2.51" />
      </g>
    </g>
    <circle
      cx="378.9"
      cy="100.46"
      r="9.21"
      stroke-width="1.41"
      stroke="#8a91c7"
      stroke-miterlimit="10"
      fill="none"
    />
    <path
      class="cls-84"
      d="M227.67 100.46H255M217.94 76.97l19.33-19.32M194.46 67.25V39.92M170.98 76.97l-19.33-19.32M161.25 100.46h-27.33M170.98 123.94l-19.33 19.32M194.46 133.66V161M217.94 123.94l19.33 19.32M275.87 157.76l30.72-2.05M275.92 43.15l30.7 2.05M113 43.1l-30.72 1.99M113 157.76l-30.72-2.05M337.84 59.25l29.35 29.45M51.06 141.53L21.75 112.2"
    />
  </g>
</svg>
